# xmcd
#
# Track frame offsets:
# 150
# 18099
# 37792
# 55928
# 70370
# 87124
# 106387
# 120030
# 138045
# 160403
# 180224
# 197100
# 212452
#
# Disc length: 3126 seconds
#
# Revision: 1
# Processed by: cddbd v1.4PL0 Copyright (c) Steve Scherf et al.
# Submitted via: CedeCatalogueitor 2.5 http://usuarios.lycos.es/kakasboy
#
DISCID=970c340d
DTITLE=Varios - Guitarras Mestizas
DYEAR=1900
DGENRE=
TTITLE0=Right Here Waiting
TTITLE1=Mestizo Feeling
TTITLE2=Paraules De Am'or
TTITLE3=Amigo
TTITLE4=Tierra Y Aire
TTITLE5=Blackbird
TTITLE6=En Mi Soledad
TTITLE7=Golden Blue
TTITLE8=Mnha De Caranval
TTITLE9=Love Story
TTITLE10=What A Diffrence A Day Meks
TTITLE11=Just The Way You Are
TTITLE12=Danzas Del Principe Igor
EXTD=
EXTT0=
EXTT1=
EXTT2=
EXTT3=
EXTT4=
EXTT5=
EXTT6=
EXTT7=
EXTT8=
EXTT9=
EXTT10=
EXTT11=
EXTT12=
PLAYORDER=
